<svg xmlns="http://www.w3.org/2000/svg" xmlns:xlink="http://www.w3.org/1999/xlink" width="500" zoomAndPan="magnify" viewBox="0 0 375 374.999991" height="500" preserveAspectRatio="xMidYMid meet" version="1.0"><defs><clipPath id="a9356d231c"><path d="M 11.410156 46.628906 L 363.910156 46.628906 L 363.910156 328.628906 L 11.410156 328.628906 Z M 11.410156 46.628906 " clip-rule="nonzero"/></clipPath><clipPath id="2aaa8b70c4"><path d="M 106.699219 116.292969 L 267.949219 116.292969 L 267.949219 258.792969 L 106.699219 258.792969 Z M 106.699219 116.292969 " clip-rule="nonzero"/></clipPath></defs><g clip-path="url(#a9356d231c)"><path fill="#000000" d="M 152.410156 46.628906 L 46.660156 46.628906 C 27.183594 46.628906 11.585938 62.402344 11.585938 81.878906 L 11.410156 293.375 C 11.410156 312.851562 27.183594 328.625 46.660156 328.625 L 328.660156 328.625 C 348.132812 328.625 363.910156 312.851562 363.910156 293.375 L 363.910156 117.128906 C 363.910156 97.652344 348.132812 81.878906 328.660156 81.878906 L 187.660156 81.878906 Z M 152.410156 46.628906 " fill-opacity="1" fill-rule="nonzero"/></g><g clip-path="url(#2aaa8b70c4)"><path fill="#ffffff" d="M 268.300781 208.503906 L 268.300781 235.613281 C 268.300781 236.351562 268.261719 237.089844 268.191406 237.828125 C 268.117188 238.5625 268.007812 239.292969 267.863281 240.015625 C 267.71875 240.742188 267.539062 241.457031 267.324219 242.164062 C 267.109375 242.875 266.859375 243.566406 266.574219 244.25 C 266.292969 244.933594 265.976562 245.601562 265.628906 246.253906 C 265.277344 246.90625 264.898438 247.539062 264.488281 248.152344 C 264.078125 248.765625 263.636719 249.359375 263.167969 249.929688 C 262.699219 250.503906 262.203125 251.050781 261.679688 251.574219 C 261.15625 252.09375 260.609375 252.589844 260.039062 253.058594 C 259.46875 253.527344 258.875 253.96875 258.257812 254.378906 C 257.644531 254.789062 257.011719 255.171875 256.359375 255.519531 C 255.707031 255.867188 255.039062 256.183594 254.359375 256.46875 C 253.675781 256.75 252.980469 257 252.273438 257.214844 C 251.566406 257.429688 250.847656 257.609375 250.125 257.753906 C 249.398438 257.898438 248.667969 258.007812 247.933594 258.082031 C 247.199219 258.15625 246.460938 258.191406 245.722656 258.191406 L 129.277344 258.191406 C 128.539062 258.191406 127.800781 258.15625 127.066406 258.082031 C 126.332031 258.007812 125.601562 257.898438 124.875 257.753906 C 124.152344 257.609375 123.433594 257.429688 122.726562 257.214844 C 122.019531 257 121.324219 256.75 120.640625 256.46875 C 119.957031 256.183594 119.292969 255.867188 118.640625 255.519531 C 117.988281 255.171875 117.355469 254.789062 116.738281 254.378906 C 116.125 253.96875 115.53125 253.527344 114.960938 253.058594 C 114.390625 252.589844 113.84375 252.09375 113.320312 251.574219 C 112.796875 251.050781 112.300781 250.503906 111.832031 249.929688 C 111.363281 249.359375 110.921875 248.765625 110.511719 248.152344 C 110.101562 247.539062 109.722656 246.90625 109.371094 246.253906 C 109.023438 245.601562 108.707031 244.933594 108.425781 244.25 C 108.140625 243.566406 107.890625 242.875 107.675781 242.164062 C 107.460938 241.457031 107.28125 240.742188 107.136719 240.015625 C 106.992188 239.292969 106.882812 238.5625 106.808594 237.828125 C 106.738281 237.089844 106.699219 236.351562 106.699219 235.613281 L 106.699219 208.503906 C 106.699219 208.046875 106.742188 207.59375 106.832031 207.144531 C 106.921875 206.699219 107.054688 206.261719 107.230469 205.839844 C 107.402344 205.417969 107.617188 205.015625 107.871094 204.632812 C 108.125 204.253906 108.414062 203.902344 108.738281 203.578125 C 109.0625 203.253906 109.414062 202.964844 109.792969 202.710938 C 110.175781 202.457031 110.574219 202.242188 111 202.066406 C 111.421875 201.894531 111.855469 201.761719 112.304688 201.671875 C 112.753906 201.582031 113.207031 201.539062 113.664062 201.539062 C 114.121094 201.539062 114.574219 201.582031 115.023438 201.671875 C 115.472656 201.761719 115.90625 201.894531 116.332031 202.066406 C 116.753906 202.242188 117.15625 202.457031 117.535156 202.710938 C 117.914062 202.964844 118.265625 203.253906 118.589844 203.578125 C 118.914062 203.902344 119.203125 204.253906 119.457031 204.632812 C 119.710938 205.015625 119.925781 205.417969 120.101562 205.839844 C 120.277344 206.261719 120.40625 206.699219 120.496094 207.144531 C 120.585938 207.59375 120.628906 208.046875 120.628906 208.503906 L 120.628906 234.394531 C 120.632812 235.042969 120.695312 235.683594 120.820312 236.320312 C 120.949219 236.953125 121.136719 237.570312 121.382812 238.167969 C 121.632812 238.765625 121.9375 239.335938 122.296875 239.875 C 122.65625 240.414062 123.066406 240.910156 123.523438 241.367188 C 123.980469 241.828125 124.480469 242.234375 125.019531 242.59375 C 125.558594 242.953125 126.125 243.257812 126.722656 243.507812 C 127.320312 243.753906 127.9375 243.941406 128.574219 244.070312 C 129.207031 244.195312 129.851562 244.261719 130.496094 244.261719 L 244.5 244.261719 C 245.148438 244.261719 245.789062 244.195312 246.425781 244.070312 C 247.0625 243.941406 247.675781 243.753906 248.277344 243.507812 C 248.875 243.257812 249.441406 242.953125 249.980469 242.59375 C 250.519531 242.234375 251.015625 241.828125 251.476562 241.367188 C 251.933594 240.910156 252.34375 240.414062 252.703125 239.875 C 253.0625 239.335938 253.367188 238.765625 253.613281 238.167969 C 253.863281 237.570312 254.050781 236.953125 254.175781 236.320312 C 254.304688 235.683594 254.367188 235.042969 254.371094 234.394531 L 254.371094 208.503906 C 254.371094 208.046875 254.414062 207.59375 254.503906 207.148438 C 254.59375 206.699219 254.726562 206.261719 254.898438 205.839844 C 255.074219 205.417969 255.289062 205.015625 255.542969 204.636719 C 255.796875 204.253906 256.085938 203.902344 256.410156 203.582031 C 256.734375 203.257812 257.085938 202.96875 257.464844 202.714844 C 257.84375 202.460938 258.246094 202.246094 258.667969 202.070312 C 259.09375 201.894531 259.527344 201.761719 259.976562 201.675781 C 260.425781 201.585938 260.878906 201.539062 261.335938 201.539062 C 261.792969 201.539062 262.246094 201.585938 262.695312 201.675781 C 263.140625 201.761719 263.578125 201.894531 264 202.070312 C 264.421875 202.246094 264.824219 202.460938 265.203125 202.714844 C 265.585938 202.96875 265.9375 203.257812 266.261719 203.582031 C 266.582031 203.902344 266.871094 204.253906 267.125 204.636719 C 267.378906 205.015625 267.59375 205.417969 267.769531 205.839844 C 267.945312 206.261719 268.078125 206.699219 268.167969 207.148438 C 268.257812 207.59375 268.300781 208.046875 268.300781 208.503906 Z M 165.074219 158.925781 L 178.332031 145.671875 C 178.53125 145.472656 178.765625 145.34375 179.042969 145.289062 C 179.320312 145.234375 179.589844 145.261719 179.847656 145.367188 C 180.109375 145.476562 180.316406 145.648438 180.472656 145.882812 C 180.628906 146.117188 180.707031 146.375 180.707031 146.65625 L 180.707031 212.242188 C 180.707031 212.699219 180.753906 213.152344 180.84375 213.601562 C 180.929688 214.050781 181.0625 214.484375 181.238281 214.90625 C 181.414062 215.328125 181.628906 215.730469 181.882812 216.113281 C 182.136719 216.492188 182.425781 216.84375 182.75 217.167969 C 183.070312 217.492188 183.421875 217.777344 183.804688 218.03125 C 184.183594 218.289062 184.585938 218.5 185.007812 218.675781 C 185.429688 218.851562 185.867188 218.984375 186.316406 219.074219 C 186.761719 219.164062 187.214844 219.207031 187.675781 219.207031 C 188.132812 219.207031 188.585938 219.164062 189.03125 219.074219 C 189.480469 218.984375 189.917969 218.851562 190.339844 218.675781 C 190.761719 218.5 191.164062 218.289062 191.542969 218.03125 C 191.925781 217.777344 192.277344 217.492188 192.597656 217.167969 C 192.921875 216.84375 193.210938 216.492188 193.464844 216.113281 C 193.71875 215.730469 193.933594 215.328125 194.109375 214.90625 C 194.285156 214.484375 194.417969 214.050781 194.503906 213.601562 C 194.59375 213.152344 194.640625 212.699219 194.640625 212.242188 L 194.640625 147.003906 C 194.640625 146.722656 194.71875 146.464844 194.875 146.230469 C 195.03125 145.996094 195.238281 145.824219 195.5 145.71875 C 195.761719 145.613281 196.027344 145.585938 196.304688 145.640625 C 196.578125 145.695312 196.816406 145.820312 197.019531 146.019531 L 209.925781 158.925781 C 210.253906 159.242188 210.609375 159.523438 210.992188 159.769531 C 211.375 160.015625 211.777344 160.222656 212.199219 160.390625 C 212.621094 160.558594 213.054688 160.6875 213.5 160.773438 C 213.945312 160.859375 214.394531 160.902344 214.851562 160.902344 C 215.304688 160.902344 215.753906 160.859375 216.203125 160.773438 C 216.648438 160.6875 217.082031 160.558594 217.503906 160.390625 C 217.925781 160.222656 218.328125 160.015625 218.710938 159.769531 C 219.089844 159.523438 219.445312 159.242188 219.777344 158.925781 C 220.097656 158.605469 220.386719 158.25 220.640625 157.871094 C 220.894531 157.492188 221.109375 157.089844 221.28125 156.667969 C 221.457031 156.246094 221.589844 155.808594 221.675781 155.359375 C 221.765625 154.914062 221.8125 154.460938 221.8125 154.003906 C 221.8125 153.546875 221.765625 153.09375 221.675781 152.644531 C 221.589844 152.195312 221.457031 151.761719 221.28125 151.339844 C 221.109375 150.914062 220.894531 150.515625 220.640625 150.132812 C 220.386719 149.753906 220.097656 149.402344 219.777344 149.078125 L 187.5 116.800781 L 155.222656 149.078125 C 154.902344 149.402344 154.613281 149.753906 154.359375 150.132812 C 154.105469 150.515625 153.890625 150.914062 153.71875 151.339844 C 153.542969 151.761719 153.410156 152.195312 153.320312 152.644531 C 153.234375 153.09375 153.1875 153.546875 153.1875 154.003906 C 153.1875 154.460938 153.234375 154.914062 153.320312 155.359375 C 153.410156 155.808594 153.542969 156.246094 153.71875 156.667969 C 153.890625 157.089844 154.105469 157.492188 154.359375 157.871094 C 154.613281 158.25 154.902344 158.605469 155.222656 158.925781 C 155.550781 159.242188 155.90625 159.523438 156.289062 159.769531 C 156.671875 160.015625 157.074219 160.222656 157.496094 160.390625 C 157.917969 160.558594 158.351562 160.6875 158.796875 160.773438 C 159.246094 160.859375 159.695312 160.902344 160.148438 160.902344 C 160.601562 160.902344 161.054688 160.859375 161.5 160.773438 C 161.945312 160.6875 162.378906 160.558594 162.800781 160.390625 C 163.222656 160.222656 163.625 160.015625 164.007812 159.769531 C 164.390625 159.523438 164.746094 159.242188 165.074219 158.925781 Z M 165.074219 158.925781 " fill-opacity="1" fill-rule="nonzero"/></g></svg>